<svg viewBox="0 0 609 177" xmlns="http://www.w3.org/2000/svg"><g fill="none" fill-rule="evenodd"><path d="M130.8 32.7c-.1-.9-.8-1.3-1.4-1.3l-12.7-.3-11.1-10.8c-1-1-3-.8-3.7-.5l-5 1.6c-.6-1.7-1.4-3.8-2.5-6-3.5-6.8-8.9-10.5-15.2-10.5a5 5 0 00-1.4.2l-.6-.7C74.4 1.5 71 .1 66.6.2c-8.1.2-16.3 6.2-23 16.7a68.7 68.7 0 00-9.3 23.8c-9.3 3-16 5-16.2 5-4.7 1.5-4.8 1.6-5.4 6.1C12.4 55.2 0 151.3 0 151.3l104.3 18 45.1-11.1-18.6-125.5zm-39.2-9.6l-8 2.5c0-4.1-.7-10-2.5-14.8 6.2 1 9.3 8 10.5 12.3zM78 27.2l-17.4 5.4a42 42 0 018.7-17c1.5-1.7 3.6-3.4 5.9-4.3 2.4 4.7 2.9 11.4 2.8 16zM66.9 5.7c2 0 3.5.3 4.8 1.3a21.6 21.6 0 00-6.3 5 47.5 47.5 0 00-10.8 22.6L40.3 39c3-13.2 14-33 26.6-33.3z" fill="#95BF47"/><path d="M129.4 31.4l-12.7-.3-11.1-10.8a2 2 0 00-1.3-.6v149.7l45.1-11.2L131 32.7c-.2-.9-1-1.3-1.5-1.3z" fill="#5E8E3E"/><path d="M79.2 54.6l-5.3 19.6s-5.8-2.6-12.8-2.2C51 72.6 51 79.1 51 80.7c.6 8.8 23.6 10.7 25 31.3 1 16.2-8.5 27.3-22.4 28.1a34.2 34.2 0 01-25.7-8.9l3.5-15s9.3 7 16.6 6.5a6.5 6.5 0 006.3-7c-.7-11.4-19.5-10.7-20.7-29.5-1-15.9 9.4-31.8 32.3-33.3 8.9-.6 13.4 1.7 13.4 1.7z" fill="#FFF"/><g fill="#000"><path d="M210.6 96.4c-5.2-2.8-8-5.2-8-8.5 0-4.2 3.9-6.8 9.7-6.8 6.8 0 13 2.8 13 2.8l4.7-14.7s-4.4-3.4-17.3-3.4c-18 0-30.6 10.4-30.6 24.9 0 8.3 5.8 14.5 13.6 19 6.4 3.5 8.6 6 8.6 9.8 0 4-3.2 7.1-9 7.1-8.7 0-17-4.5-17-4.5l-5.1 14.6s7.6 5.1 20.3 5.1c18.6 0 32-9.1 32-25.5-.2-9-6.9-15.3-15-19.9zM284.4 65.6c-9.1 0-16.3 4.4-21.8 11l-.2-.2 7.9-41.4h-20.6l-20.1 105.5h20.6l6.8-36c2.7-13.7 9.7-22.1 16.3-22.1 4.6 0 6.5 3.2 6.5 7.7 0 2.8-.3 6.3-.9 9.1l-7.8 41.3h20.6l8-42.6c.9-4.5 1.5-9.9 1.5-13.6.1-11.7-6-18.7-16.8-18.7zM348 65.6c-24.9 0-41.3 22.4-41.3 47.4 0 16 9.9 28.8 28.4 28.8 24.3 0 40.8-21.8 40.8-47.3.1-14.8-8.6-29-28-29zM337.9 126c-7 0-10-6-10-13.5 0-11.8 6-31 17.3-31 7.3 0 9.7 6.3 9.7 12.4 0 12.6-6.2 32.1-17 32.1zM428.7 65.6C415 65.6 407 77.9 407 77.9h-.2l1.2-11.1h-18.3c-.8 7.4-2.5 18.9-4.1 27.4l-14.4 75.5h20.6l5.7-30.5h.5s4.3 2.6 12 2.6c24.3 0 40.2-24.8 40.2-50 0-13.8-6.3-26.2-21.4-26.2zM409 126.4c-5.4 0-8.5-3-8.5-3l3.4-19.3c2.4-13 9.1-21.5 16.3-21.5 6.3 0 8.3 5.9 8.3 11.4 0 13.4-8 32.4-19.5 32.4zM479.5 36c-6.6 0-11.8 5.2-11.8 12 0 6 4 10.3 9.8 10.3h.2c6.5 0 12-4.4 12-12 0-6-4-10.3-10.2-10.3zM450.7 140.4h20.5l14-73.1h-20.7zM537.7 67.2h-14.3l.7-3.4c1.2-7.1 5.4-13.3 12.3-13.3 3.7 0 6.6 1 6.6 1l4-16.1s-3.5-1.8-11.2-1.8a31 31 0 00-20.2 6.8c-7 6-10.4 14.6-12 23.4l-.6 3.4h-9.6l-3 15.6h9.6l-11 57.7h20.6l11-57.7h14.2l3-15.6zM587.4 67.3s-12.9 32.5-18.6 50.3h-.2c-.4-5.7-5.2-50.3-5.2-50.3h-21.6l12.4 67.1c.2 1.5.1 2.4-.5 3.4a36.1 36.1 0 01-11.2 12.4 47.6 47.6 0 01-11.7 5.9l5.7 17.5c4.2-.8 13-4.4 20.2-11.2a138 138 0 0027-41L609 67.4h-21.6z"/></g></g></svg>